{
	"asset":{
		"generator":"Khronos glTF Blender I/O v3.6.27",
		"version":"2.0"
	},
	"extensionsUsed":[
		"KHR_materials_specular",
		"KHR_materials_ior"
	],
	"scene":0,
	"scenes":[
		{
			"name":"Scene",
			"nodes":[
				0
			]
		}
	],
	"nodes":[
		{
			"mesh":0,
			"name":"12140_Skull_v3_L2",
			"rotation":[
				-0.0726078599691391,
				0,
				0,
				0.9973605871200562
			],
			"scale":[
				0.5,
				0.4999999701976776,
				0.4999999701976776
			]
		}
	],
	"materials":[
		{
			"doubleSided":true,
			"extensions":{
				"KHR_materials_specular":{
					"specularColorFactor":[
						0,
						0,
						0
					]
				},
				"KHR_materials_ior":{
					"ior":1.4500000476837158
				}
			},
			"name":"12140_Skull_v3",
			"pbrMetallicRoughness":{
				"baseColorFactor":[
					0.800000011920929,
					0.800000011920929,
					0.800000011920929,
					1
				],
				"metallicFactor":0
			}
		}
	],
	"meshes":[
		{
			"name":"12140_Skull_v3_L2",
			"primitives":[
				{
					"attributes":{
						"POSITION":0,
						"NORMAL":1,
						"TEXCOORD_0":2
					},
					"indices":3,
					"material":0
				}
			]
		}
	],
	"accessors":[
		{
			"bufferView":0,
			"componentType":5126,
			"count":42682,
			"max":[
				9.919899940490723,
				27.575899124145508,
				15.487700462341309
			],
			"min":[
				-9.92039966583252,
				0.050200000405311584,
				-13.964300155639648
			],
			"type":"VEC3"
		},
		{
			"bufferView":1,
			"componentType":5126,
			"count":42682,
			"type":"VEC3"
		},
		{
			"bufferView":2,
			"componentType":5126,
			"count":42682,
			"type":"VEC2"
		},
		{
			"bufferView":3,
			"componentType":5123,
			"count":240048,
			"type":"SCALAR"
		}
	],
	"bufferViews":[
		{
			"buffer":0,
			"byteLength":512184,
			"byteOffset":0,
			"target":34962
		},
		{
			"buffer":0,
			"byteLength":512184,
			"byteOffset":512184,
			"target":34962
		},
		{
			"buffer":0,
			"byteLength":341456,
			"byteOffset":1024368,
			"target":34962
		},
		{
			"buffer":0,
			"byteLength":480096,
			"byteOffset":1365824,
			"target":34963
		}
	],
	"buffers":[
		{
			"byteLength":1845920,
			"uri":"data:application/octet-stream;base64,"
		}
	]
}
